# xmcd
#
# Track frame offsets:
#	150
#	70000
#	169300
#
# Disc length: 3079 seconds
#
# Revision: 1
# Processed by: cddbd v1.5.1PL0 Copyright (c) Steve Scherf et al.
# Submitted via: CDex 1.50Beta5
#
DISCID=210c0503
DTITLE=Yoko Kawahara, Marga H将モffgen, H-D. Bader, Nikolaus Hillebrand, di - Yoko Kawahara, Marga H将モffgen, H-D. Bader, Nikolaus Hillebrand, dir. Roland Bader - Max Reger - Requiem 144 - Latin Requiem - Dies Irae
DYEAR=1900
DGENRE=Classical
TTITLE0=Requiem op.144b nach Hebbel
TTITLE1=Lateinisches Requiem
TTITLE2=Dies Irae
EXTD=KOCH SCHWANN CD 313004H1 (P) 1988
EXTT0=
EXTT1=
EXTT2=
PLAYORDER=
